<?xml version="1.0" standalone="no"?>
<!DOCTYPE svg PUBLIC "-//W3C//DTD SVG 20010904//EN"
 "http://www.w3.org/TR/2001/REC-SVG-20010904/DTD/svg10.dtd">
<svg version="1.0" xmlns="http://www.w3.org/2000/svg"
 width="512.000000pt" height="512.000000pt" viewBox="0 0 512.000000 512.000000"
 preserveAspectRatio="xMidYMid meet">

<g transform="translate(0.000000,512.000000) scale(0.100000,-0.100000)"
fill="#000000" stroke="none">
<path d="M512 4578 c-9 -9 -12 -74 -12 -233 l0 -221 -250 -457 -250 -458 0
-118 c0 -180 29 -267 121 -360 66 -65 156 -105 252 -109 l77 -4 0 -1033 c0
-948 1 -1034 17 -1046 13 -12 339 -14 2056 -11 1122 2 2044 5 2049 8 4 3 8
478 8 1055 l0 1050 23 -8 c12 -4 67 -8 122 -8 89 0 107 3 163 29 82 38 171
131 203 213 18 48 23 83 26 198 l5 140 -246 450 -246 450 0 231 c0 165 -3 233
-12 242 -17 17 -4089 17 -4106 0z m3916 -65 l122 -6 0 -184 0 -183 -1985 0
-1985 0 0 183 c0 101 3 187 7 190 8 9 3681 9 3841 0z m-2793 -465 c-2 -7 -45
-192 -96 -410 l-92 -398 -315 0 c-247 0 -313 3 -309 13 71 185 289 742 300
770 l16 37 250 0 c196 0 249 -3 246 -12z m1179 -40 c10 -85 56 -691 56 -731
l0 -37 -315 0 -315 0 5 38 c3 20 16 195 30 387 14 193 28 360 31 373 l4 22
249 0 250 0 5 -52z m1326 -358 l158 -405 -310 -3 c-171 -1 -313 -1 -315 1 -2
2 -44 177 -93 388 -49 211 -92 394 -95 407 l-5 22 251 -2 251 -3 158 -405z
m-2702 -607 c-3 -103 -7 -124 -30 -168 -32 -62 -103 -129 -166 -158 -65 -29
-179 -29 -244 0 -63 29 -134 96 -166 158 -23 44 -27 65 -30 168 l-4 117 322 0
322 0 -4 -117z m1440 0 c-3 -103 -7 -124 -30 -168 -32 -62 -103 -129 -166
-158 -65 -29 -179 -29 -244 0 -63 29 -134 96 -166 158 -23 44 -27 65 -30 168
l-4 117 322 0 322 0 -4 -117z m1440 0 c-3 -103 -7 -124 -30 -168 -32 -62 -103
-129 -166 -158 -65 -29 -179 -29 -244 0 -63 29 -134 96 -166 158 -23 44 -27
65 -30 168 l-4 117 322 0 322 0 -4 -117z m-3535 -242 c51 -87 172 -165 277
-179 156 -22 323 54 397 179 21 36 25 36 46 0 74 -125 241 -201 397 -179 105
14 226 92 277 179 21 36 25 36 46 0 51 -87 172 -165 277 -179 156 -22 323 54
397 179 21 36 25 36 46 0 51 -87 172 -165 277 -179 156 -22 323 54 397 179 21
36 25 36 46 0 74 -125 241 -201 397 -179 105 14 226 92 277 179 10 16 20 29
23 29 3 0 20 -23 38 -50 19 -27 49 -61 68 -75 l34 -26 0 -1035 0 -1034 -1190
0 -1190 0 0 788 c0 600 -3 791 -12 800 -17 17 -1059 17 -1076 0 -9 -9 -12
-200 -12 -800 l0 -788 -245 0 -245 0 0 1013 0 1014 50 23 c53 25 129 93 157
141 21 36 25 36 46 0z m1257 -1431 l0 -760 -470 0 -470 0 0 760 0 760 470 0
470 0 0 -760z"/>
<path d="M2582 2198 c-17 -17 -17 -1199 0 -1216 9 -9 188 -12 744 -12 653 0
734 2 748 16 14 14 16 82 16 604 0 522 -2 590 -16 604 -14 14 -95 16 -748 16
-556 0 -735 -3 -744 -12z m698 -318 l0 -250 -315 0 -315 0 0 250 0 250 315 0
315 0 0 -250z m720 0 l0 -250 -315 0 -315 0 0 250 0 250 315 0 315 0 0 -250z
m-720 -580 l0 -250 -315 0 -315 0 0 250 0 250 315 0 315 0 0 -250z m720 0 l0
-250 -315 0 -315 0 0 250 0 250 315 0 315 0 0 -250z"/>
<path d="M1872 1408 c-8 -8 -12 -51 -12 -128 0 -123 6 -140 47 -140 34 0 43
29 43 144 0 82 -3 108 -16 120 -18 19 -45 21 -62 4z"/>
</g>
</svg>
